<svg width="19" height="9" viewBox="0 0 19 9" fill="none" xmlns="http://www.w3.org/2000/svg">
<path d="M17.7811 4.40612C18.0827 4.20263 18.3278 3.92606 18.4936 3.6022C18.6593 3.27834 18.7403 2.91777 18.729 2.55413C18.7177 2.19049 18.6144 1.83565 18.4289 1.52272C18.2433 1.2098 17.9814 0.948993 17.6678 0.764653C17.3541 0.580313 16.9989 0.478448 16.6352 0.468568C16.2715 0.458687 15.9113 0.541113 15.5881 0.70815C15.2649 0.875188 14.9893 1.12139 14.787 1.42378C14.5847 1.72617 14.4623 2.07488 14.4313 2.43737H4.75338C4.7221 2.07516 4.59959 1.72677 4.39728 1.4247C4.19496 1.12264 3.91944 0.876735 3.59641 0.70993C3.27337 0.543126 2.91335 0.460856 2.54993 0.470795C2.18651 0.480733 1.83153 0.582557 1.51809 0.766767C1.20466 0.950978 0.942985 1.21157 0.757485 1.52424C0.571984 1.83692 0.468698 2.19148 0.457261 2.55486C0.445825 2.91823 0.526611 3.27859 0.692082 3.60231C0.857554 3.92603 1.10232 4.20256 1.40355 4.40612C1.10196 4.6096 0.856848 4.88618 0.691085 5.21003C0.525323 5.53389 0.444317 5.89447 0.455632 6.25811C0.466946 6.62174 0.570211 6.97658 0.755785 7.28951C0.94136 7.60243 1.20319 7.86324 1.51685 8.04758C1.8305 8.23192 2.18575 8.33378 2.54943 8.34367C2.91311 8.35355 3.27336 8.27112 3.59656 8.10408C3.91976 7.93705 4.19537 7.69084 4.39767 7.38845C4.59996 7.08606 4.72234 6.73735 4.75338 6.37487H14.4313C14.4625 6.73708 14.585 7.08546 14.7874 7.38753C14.9897 7.68959 15.2652 7.9355 15.5882 8.1023C15.9113 8.26911 16.2713 8.35138 16.6347 8.34144C16.9981 8.3315 17.3531 8.22968 17.6665 8.04547C17.98 7.86126 18.2417 7.60066 18.4272 7.28799C18.6127 6.97532 18.7159 6.62076 18.7274 6.25738C18.7388 5.894 18.658 5.53364 18.4926 5.20992C18.3271 4.88621 18.0823 4.60967 17.7811 4.40612V4.40612Z" fill="#29C3BE"/>
</svg>
